<?xml version="1.0" encoding="utf-8"?>
<!-- Generator: Adobe Illustrator 21.0.0, SVG Export Plug-In . SVG Version: 6.00 Build 0)  -->
<svg version="1.1" id="Layer_1" xmlns="http://www.w3.org/2000/svg" xmlns:xlink="http://www.w3.org/1999/xlink" x="0px" y="0px"
	 viewBox="0 0 496.1 288" style="enable-background:new 0 0 496.1 288;" xml:space="preserve">
<style type="text/css">
	.st0{fill:none;}
	.st1{fill:#FFFFFF;}
</style>
<rect class="st0" width="496.1" height="288"/>
<path class="st1" d="M182.6,82.2C171.8,75.7,159.3,72,145.8,72c-13.6,0-26.5,3.8-37.3,10.5c-3.2,2-5.1,3.6-5.1,5.7
	c0,6.1,14.2,12.6,39.4,12.6c24.9,0,44.2-7.2,44.2-14C186.9,85,185.5,83.9,182.6,82.2z M193.3,90.2c0.3,0.5,0.5,1,0.5,1.7
	c0,8-24.5,22.2-63.4,22.2c-28.6,0-34-10.6-34-17.4c0-2.4,0.9-4.9,3-7.4c0.1-0.2,0-0.2-0.1-0.1c-3.7,3.2-7.1,6.7-10.1,10.5
	c-1.4,1.8-2.3,3.4-2.3,4.4c0,14,35.1,24.2,67.9,24.2c35,0,50.6-11.4,50.6-21.5c0-3.6-1.4-5.7-5-9.7c-2.3-2.6-4.5-4.8-6.8-6.9
	C193.3,90,193.2,90,193.3,90.2z M80.7,113.1c-2.1,4.2-4.5,11.3-5.2,14.9c-0.3,1.6-0.2,2.3,0.4,3.5c4.4,9.4,26.8,24.4,78.9,24.4
	c31.8,0,56.5-7.8,60.5-22.1c0.7-2.6,0.8-5.4-0.2-9.1c-1.1-4.2-3-9-4.7-12.5c-0.1-0.1-0.2-0.1-0.1,0c0.6,18.7-51.5,30.8-77.8,30.8
	c-28.5,0-52.3-11.4-52.3-25.7c0-1.4,0.3-2.8,0.6-4.2C80.9,113,80.8,113,80.7,113.1z M131.3,172.9c-36.8,0-54.2-17.2-57.4-28.9
	c0-0.2-0.2-0.1-0.2,0c0,3.9,0.4,9,1.1,12.4c0.3,1.6,1.7,4.2,3.6,6.3c8.9,9.3,31.2,22.3,69.7,22.3c52.5,0,64.5-17.5,66.9-23.2
	c1.8-4.1,2.7-11.5,2.7-17.8c0-1.5,0-2.7-0.1-3.9c0-0.2-0.1-0.2-0.2,0C214.9,154.2,170.1,172.9,131.3,172.9z M150.7,204.5
	c17.7,0,37.2-4.8,48.8-14.4c3.2-2.6,6.2-6.1,8.9-10.7c1.6-2.7,3.1-5.9,4.3-9c0.1-0.1,0-0.2-0.2-0.1c-10.8,15.9-42.2,25.9-74.6,25.9
	c-22.9,0-47.5-7.3-57.2-21.3c-0.1-0.1-0.2-0.1-0.1,0.1C89.8,194.1,117,204.5,150.7,204.5z M101.6,200.9
	c12.2,9.5,27.5,15.1,44.2,15.1c18.2,0,34.8-6.8,47.4-17.8c0.2-0.1,0.1-0.2-0.1-0.1c-5.7,3.8-21.9,12.1-47.4,12.1
	c-22.2,0-36.2-4.9-44.1-9.4C101.6,200.7,101.5,200.8,101.6,200.9z M405.2,172.9c0.9,0,1.6-0.6,1.6-1.6v-46.4h15.8
	c0.9,0,1.6-0.6,1.6-1.6v-6.4c0-0.9-0.6-1.6-1.6-1.6h-42c-0.9,0-1.6,0.6-1.6,1.6v6.4c0,0.9,0.6,1.6,1.6,1.6h15.8v46.4
	c0,0.9,0.6,1.6,1.6,1.6H405.2z M295.5,171l-19.5-54.3c-0.4-1-1.1-1.4-2.2-1.4h-9.6c-1.1,0-1.7,0.4-2.1,1.4L242.5,171
	c-0.4,0.9,0.3,1.9,1.2,1.9h7.1c1.1,0,1.7-0.5,2.1-1.5l4.3-12.2h23.3l4.2,12.2c0.4,1,1,1.5,2.1,1.5h7.5
	C295.2,172.9,295.8,171.9,295.5,171z M260.5,149.7l8.4-23.8l8.3,23.8H260.5z M386.5,170.8l-12.2-13.2l8.1-13.8c0.7-1.2,0.1-2-1.1-2
	h-7c-1.2,0-1.8,0.4-2.4,1.3l-4.5,7.9l-8.1-8.7c5.5-3,10.7-7.1,10.7-14.3c0-8.4-5.9-14.1-15.6-14.1c-9.4,0-15.7,6.1-15.7,15
	c0,3.5,1.5,7.6,4.8,11.4c-6.8,3.7-11.2,8.2-11.2,16.6c0,10.9,8.3,17.2,18.8,17.2c8.5,0,13.6-3.7,17.3-8.6l5.5,6
	c0.8,0.9,1.4,1.2,2.7,1.2h9.1C386.9,172.9,387.4,171.8,386.5,170.8z M354.6,122.9c3.7,0,5.6,2.4,5.6,5.4c0,3.2-2.2,5-7.3,7.9
	c-3-3.2-4.2-5.3-4.2-7.8C348.7,125.3,350.9,122.9,354.6,122.9z M351.4,165.1c-4.8,0-8.8-3.5-8.8-8.5c0-5,2.9-7.6,7.3-10.1l11.7,12.5
	C359.1,162.8,356,165.1,351.4,165.1z M307.4,172.9c-0.9,0-1.6-0.6-1.6-1.6v-46.4H290c-0.9,0-1.6-0.6-1.6-1.6v-6.4
	c0-0.9,0.6-1.6,1.6-1.6h42c0.9,0,1.6,0.6,1.6,1.6v6.4c0,0.9-0.6,1.6-1.6,1.6h-15.8v46.4c0,0.9-0.6,1.6-1.6,1.6H307.4z"/>
</svg>
